<svg id="filled_outline" height="512" viewBox="0 0 512 512" width="512" xmlns="http://www.w3.org/2000/svg" data-name="filled outline"><path d="m256 360-24 96h-16v-96z" fill="#bed3f7"/><path d="m216 280h272v80h-272z" fill="#e0edff"/><path d="m448 360 24 96h16v-96z" fill="#bed3f7"/><path d="m216 64h272v176h-272z" fill="#548aff"/><path d="m112 72-11.02944-11.02944a16.97054 16.97054 0 0 0 -12-4.97056 16.97054 16.97054 0 0 0 -16.97056 16.97055v34.18507a53.8962 53.8962 0 0 1 -24 44.84438h15.20785a40 40 0 0 0 39.22323-32.15535l1.56892-7.8446z" fill="#b1712c"/><path d="m112 103.999 16-15.999h24v24a24 24 0 0 1 -24 24 24 24 0 0 1 -24-24v-8z" fill="#ffceb6"/><path d="m152 88a24 24 0 0 0 -24-24 24 24 0 0 0 -24 24v16l8-.001 16-15.999z" fill="#c78640"/><path d="m144 232v-24l1.68918-.84459a25.88851 25.88851 0 0 0 14.31082-23.15541v-48h-48a24 24 0 0 0 -24 24v72z" fill="#ef5e3b"/><path d="m232 424-32 16-24-112-32.05-23.32007-42.77-31.09985a31.9967 31.9967 0 0 1 -13.18-25.88008v-15.7h56l38.45 34.17993 22.3 19.82007a40.06125 40.06125 0 0 1 13.12012 24.93994z" fill="#ffceb6"/><path d="m145.53491 180.07155 78.46509-12.07155 16 8h4a20 20 0 0 0 20-20 20 20 0 0 0 -20-20h-101.83538a22.16462 22.16462 0 0 0 -22.16462 22.16462 22.16462 22.16462 0 0 0 25.53491 21.90693z" fill="#ffceb6"/><path d="m30.857 399.429-6.857 8.571 24 48h16v-40z" fill="#e0edff"/><path d="m144 248-10.65991 64-3.44019 20.62012a40.035 40.035 0 0 1 -9.55981 20l-56.34009 63.37988-33.14014-16.57007 57.14014-71.42993v-80z" fill="#ffceb6"/><path d="m200 440 32-16 32 16v16h-64z" fill="#e0edff"/><path d="m144 248-10.66 64h-45.34v-64z" fill="#ffa100"/><path d="m182.45 266.17993-38.5 38.5-42.77-31.09985a31.9967 31.9967 0 0 1 -13.18-25.88008v-15.7h56z" fill="#ffb401"/><path d="m248 240v40h16l16-40z" fill="#718799"/><path d="m456 240v40h-16l-16-40z" fill="#718799"/><path d="m336 120v64l40-32z" fill="#91c0ff"/><path d="m141.3313 312.67773 27.488 19.99122 23.1807 108.17871v15.15234a8.00039 8.00039 0 0 0 8 8h64a8.00039 8.00039 0 0 0 8-8v-16a7.99912 7.99912 0 0 0 -4.42188-7.15527l-28.17089-14.085-13.60157-108.81735a47.98793 47.98793 0 0 0 -15.74121-29.92187l-58.06445-51.61328v-15.6211a33.65951 33.65951 0 0 0 15.97729-28.07324l54.72291-8.41889 13.72168 6.86132a7.99934 7.99934 0 0 0 3.57812.84468h4a28 28 0 0 0 0-56h-88.30518a31.792 31.792 0 0 0 4.30518-16v-24a31.978 31.978 0 0 0 -48.24121-27.55566l-5.13086-5.13086a24.97109 24.97109 0 0 0 -42.62793 17.65722v34.18457a45.80666 45.80666 0 0 1 -20.4375 38.18848 7.99967 7.99967 0 0 0 4.4375 14.65625h15.208a47.65589 47.65589 0 0 0 16.94629-3.1189c-.09985 1.02661-.15429 2.06641-.15429 3.1189v165.19336l-62.24707 77.80957a7.99991 7.99991 0 0 0 -.9082 8.57519l24 48a8.00022 8.00022 0 0 0 7.15527 4.42188h16a8.00039 8.00039 0 0 0 8-8v-36.958l54.31641-61.10644a47.94331 47.94331 0 0 0 11.47168-23.998zm-14.77515-8.67773h-30.55615v-24.313c.15991.12012.31152.249.47363.3667l30.3899 22.10181zm129.44385 140.94434v3.05566h-48v-3.05566l24-12zm-46.07129-133.01661 13.43067 107.44827-17.70093 8.85058-21.83618-101.90236a7.99679 7.99679 0 0 0 -3.11719-4.794l-24.48487-17.80732 26.55347-26.5539 16.66187 14.81054a31.9899 31.9899 0 0 1 10.49316 19.94819zm-39.13525-45.40773-27.67408 27.67505-37.23559-27.08081a24.07287 24.07287 0 0 1 -9.88379-19.40916v-7.70508h44.9585zm-28.68213-66.52-1.68945.84473a7.99912 7.99912 0 0 0 -4.42188 7.15527v16h-40v-64a16.01833 16.01833 0 0 1 16-16h3.543a30.15843 30.15843 0 0 0 26.60937 44.33008 30.31892 30.31892 0 0 0 4.59961-.35156l4.95117-.76172a17.76812 17.76812 0 0 1 -9.59182 12.7832zm-14.11133-72a16.01833 16.01833 0 0 1 -16-16v-.001h.001a7.99779 7.99779 0 0 0 5.65527-2.34277l13.65721-13.65623h12.68652v16a16.01833 16.01833 0 0 1 -16 16zm128 28a12.01312 12.01312 0 0 1 -12 12h-2.11133l-14.31055-7.15527a8.01453 8.01453 0 0 0 -4.79492-.752l-78.46484 12.07129a14.1644 14.1644 0 1 1 -2.15336-28.16402h101.835a12.01312 12.01312 0 0 1 12 12zm-114.165-76h-13.835a7.99836 7.99836 0 0 0 -5.65625 2.34277l-10.34375 10.34229v-4.68506a15.98641 15.98641 0 0 1 29.835-8zm-61.835 27.15527v-34.18457a8.97 8.97 0 0 1 15.31348-6.34277l5.13086 5.13086a31.79317 31.79317 0 0 0 -4.44434 16.24121v23.20679l-1.41406 7.0686a32.10643 32.10643 0 0 1 -26.44629 25.34082 61.794 61.794 0 0 0 11.86035-36.46094zm-27.05566 340.84473-19.05616-38.11157 22.11182 11.05591v27.05566zm61.41308-100.69336-52.26318 58.79614-18.80811-9.404 50.96094-63.70166a7.998 7.998 0 0 0 1.75293-4.99712v-8h27.88989l-1.884 11.30664a31.97113 31.97113 0 0 1 -7.64847 16z"/><path d="m488 56h-272a8.00039 8.00039 0 0 0 -8 8v48h16v-40h256v160h-256v-40h-16v48a8.00039 8.00039 0 0 0 8 8h24v24h-8v16h112v64h-96v16h193.75415l22.48511 89.94043a7.99866 7.99866 0 0 0 7.76074 6.05957h16a8.00039 8.00039 0 0 0 8-8v-176a8.00039 8.00039 0 0 0 -8-8h-24v-24h24a8.00039 8.00039 0 0 0 8-8v-176a8.00039 8.00039 0 0 0 -8-8zm-69.416 192 9.6001 24h-152.36818l9.6001-24zm-162.584 24v-24h12.18408l-9.6001 24zm222.24609 176-20.00024-80h21.75415v80zm1.75391-96h-120v-64h120zm-32-80h-2.584l-9.6001-24h12.1841z"/><circle cx="424" cy="320" r="8"/><circle cx="280" cy="320" r="8"/><path d="m335.999 192a7.99481 7.99481 0 0 0 4.99805-1.75293l40-32a7.99943 7.99943 0 0 0 0-12.49414l-40-32a8 8 0 0 0 -12.99705 6.24707v64a8.00085 8.00085 0 0 0 7.999 8zm8.001-55.35547 19.19336 15.35547-19.19336 15.35547z"/></svg>