<svg id="filled_outline" height="512" viewBox="0 0 512 512" width="512" xmlns="http://www.w3.org/2000/svg" data-name="filled outline"><path d="m304 384-32 16-32-88-52.59009-52.59 25.46009-67.31 47.09 67.27 16.65 23.78a32.19358 32.19358 0 0 1 4.82995 10.59z" fill="#ffceb6"/><path d="m259.96 259.37-39.6 32.99-32.95-32.95 25.46-67.31z" fill="#ffa100"/><path d="m272 400 32-16 32 24v16h-64z" fill="#e0edff"/><path d="m160 208-14.16023-14.16023a33.59508 33.59508 0 0 1 -9.83977-23.75531 33.5951 33.5951 0 0 1 15.0956-28.04281l34.47843-22.745z" fill="#ffceb6"/><path d="m240 163.43-17.22 44.27-31.18 80.17-11.94007 30.71a32.00364 32.00364 0 0 1 -12.06982 15.03l-63.59011 42.39-32-16 64-64 5.81006-24.73 18.57994-79.17 15.61-66.49 48-37.61z" fill="#548aff"/><path d="m216 87.999 16-15.999h24v24a24 24 0 0 1 -24 24 24 24 0 0 1 -24-24v-8z" fill="#ffceb6"/><path d="m256 72a24 24 0 0 0 -24-24 24 24 0 0 0 -24 24v16l8-.001 16-15.999z" fill="#c78640"/><path d="m214.489 112.11127 25.511 31.88873 32-16 5.65431-8.48146a15.29013 15.29013 0 0 1 23.53391-2.33032 15.29013 15.29013 0 0 1 0 21.62351l-33.87452 33.87457a38.62739 38.62739 0 0 1 -27.3137 11.3137 38.62739 38.62739 0 0 1 -27.31368-11.3137l-29.34123-29.34123a25.07762 25.07762 0 0 1 -7.34509-17.73256 21.61247 21.61247 0 0 1 21.61248-21.61251 21.61248 21.61248 0 0 1 16.87652 8.11127z" fill="#ffceb6"/><path d="m222.78 207.7-31.18 80.17-49.79-16.6 18.58-79.17z" fill="#ffb401"/><path d="m191.6 287.87-11.94007 30.71a32.00364 32.00364 0 0 1 -12.06982 15.03l-63.59011 42.39-32-16 64-64 5.81006-24.73z" fill="#ffceb6"/><path d="m368 464h-344l24-40h320z" fill="#718799"/><path d="m368 408h120v56h-120z" fill="#8098ab"/><path d="m440 216h48v192h-48z" fill="#718799"/><path d="m440 216h-128l16-32h112z" fill="#718799"/><path d="m408 216 40-64h40v64z" fill="#8098ab"/><path d="m104 376v40l-8 8-40-48 16-16z" fill="#e0edff"/><path d="m384 408 16-32h40v32z" fill="#62798c"/><path d="m24 472h464a7.99977 7.99977 0 0 0 8-8v-312a7.99977 7.99977 0 0 0 -8-8h-40a8.00055 8.00055 0 0 0 -6.78418 3.75977l-17.65015 28.24023h-95.56567a7.99924 7.99924 0 0 0 -7.15527 4.42236l-16 32a7.99974 7.99974 0 0 0 7.15527 11.57764h120v144h-32a7.99924 7.99924 0 0 0 -7.15527 4.42236l-13.78882 27.57764h-11.05591a7.99977 7.99977 0 0 0 -8 8v8h-16v-8a7.99927 7.99927 0 0 0 -3.2002-6.3999l-29.72753-22.2959-21.876-87.50391a39.86008 39.86008 0 0 0 -6.03613-13.23633l-51.01172-72.87359 5.35107-13.75983c.83.04358 1.66309.06946 2.50049.06946a46.32162 46.32162 0 0 0 32.97021-13.65674l33.875-33.875a23.29 23.29 0 1 0 -35.84716-29.38721l-4.47608 6.71387-24.31495 12.15723-5.09277-6.36585a32.04746 32.04746 0 0 0 26.88577-31.5863v-24a32 32 0 0 0 -64 0v24c0 .03564.00256.07068.00269.10632-.79175-.06311-1.58741-.10632-2.39039-.10632a29.65888 29.65888 0 0 0 -29.26464 25.07666l-21.65723 14.28711a41.59481 41.59481 0 0 0 -6.50732 64.13281l8.30493 8.30487-19.75562 84.15265-78.38916 78.38916a8.0004 8.0004 0 0 0 -.48926 10.77832l29.06543 34.87842h-30.91943a8.0001 8.0001 0 0 0 -6.85986 3.88428l-24 40a8 8 0 0 0 6.85986 12.11572zm456-72h-32v-176h32zm-27.56592-240h27.56592v48h-57.56567zm-119.48974 32h80.62133l-10 16h-78.62133zm72 192h27.05566v16h-35.05579zm-28.94434 32h104v40h-104zm-48-4v4h-48v-11.05591l23.15552-11.5777zm-54.32568-116.31836 21.008 84.03308-18.23132 9.11566-28.9325-79.56427a8.00535 8.00535 0 0 0 -1.86181-2.92285l-13.44169-13.44177 26.17956-21.81635 11.65772 16.65363a23.92608 23.92608 0 0 1 3.62204 7.94287zm-24.4878-37.751-28.33227 23.61011-13.1062-13.10626 17.42529-44.808zm-82.86145-56.103 45.714 11.42846-25.12807 64.6149-35.64807-11.88269zm51.55945-3.60285-47.90234-11.97558 8.54687-36.40674 28.50074 28.50079a46.56754 46.56754 0 0 0 14.71582 9.95294zm30.11548-102.22479a15.97369 15.97369 0 0 1 -26.57385 11.976l-.68982-.86224a30.055 30.055 0 0 0 -2.12341-2.37726 15.895 15.895 0 0 1 -2.61292-8.7365v-.001h.001a8.003 8.003 0 0 0 5.65576-2.34277l13.65672-13.65623h12.68652zm-16-40a15.99656 15.99656 0 0 1 13.835 8h-13.835a8.00121 8.00121 0 0 0 -5.65674 2.34277l-10.34326 10.3429v-4.68567a16.01833 16.01833 0 0 1 16-16zm-34.3877 56a13.52074 13.52074 0 0 1 8.9375 3.36847 32.2866 32.2866 0 0 0 3.10926 3.51153l24.09387 30.11756a7.99888 7.99888 0 0 0 9.82471 2.15771l32-16a7.99558 7.99558 0 0 0 3.07861-2.71777l5.6543-8.48145a7.291 7.291 0 0 1 11.22119-1.11084 7.29838 7.29838 0 0 1 0 10.30958l-33.875 33.875a30.628 30.628 0 0 1 -43.31348 0l-29.34126-29.34131a16.967 16.967 0 0 1 -5.002-12.07618 13.62771 13.62771 0 0 1 13.6123-13.6123zm-46.11572 76.18311a25.59553 25.59553 0 0 1 4.0044-39.46387l8.11364-5.35254-10.82462 46.1098zm-9.83984 113.47363a7.99767 7.99767 0 0 0 2.13135-3.82813l3.80285-16.199 33.51406 11.17139-8.89746 22.87922a23.884 23.884 0 0 1 -9.05518 11.2705l-59.727 39.81787-17.92016-8.96014zm-68.07715 68.07715 22.42041 11.2102v30.55933l-29.17725-35.0127zm38.42041 10.54785 60.02734-40.01807a39.80347 39.80347 0 0 0 15.09229-18.78467l14.29285-36.753 31.6759 31.67591 30.91162 85.00776v14.59033h-152zm-59.4707 51.71826h307.4707v24h-321.87061z"/></svg>