<svg id="flat" height="512" viewBox="0 0 512 512" width="512" xmlns="http://www.w3.org/2000/svg"><circle cx="384" cy="392" fill="#62798c" r="72"/><path d="m296.73 309.84-25.35 21.23-50.05-75.07h-61.33v-48h68.92a40.01863 40.01863 0 0 1 37.14008 25.14z" fill="#ffbfa1"/><path d="m288.30615 384v-32a32 32 0 0 1 32-32h47.69385v-32h-56a56 56 0 0 0 -56 56v40z" fill="#62798c"/><path d="m350.054 160 73.946 304h-32l-73.946-304z" fill="#718799"/><path d="m160 208h56v48h-56z" fill="#ffa100"/><path d="m312 144h48l28.68629-28.6863a11.31371 11.31371 0 0 1 8-3.3137 11.31369 11.31369 0 0 1 11.31371 11.3137 11.31372 11.31372 0 0 1 -3.31371 8l-24.97056 24.97056a40 40 0 0 1 -28.28427 11.71574h-39.43146z" fill="#8098ab"/><path d="m288 464v-32h-40l16 32z" fill="#718799"/><path d="m104 464 16-32v-16h-40v48z" fill="#718799"/><path d="m120 280h32v64h-32z" fill="#62798c"/><path d="m288.30615 367.10833-.30615 64.89167h-179.01934a52.98066 52.98066 0 0 1 -52.98066-52.98066v-.00012a52.98066 52.98066 0 0 1 65.20951-51.55z" fill="#8098ab"/><path d="m88 248h112v32h-112z" fill="#8098ab"/><path d="m248 285.66a44.29107 44.29107 0 0 1 -12.97 31.31l-51.03 51.03-40-8 56-72-35.37-20.63-36.54-21.32a48.56035 48.56035 0 0 1 -9.87-76.27l21.78-21.78 68-68h16v80l-48 48 27 21 27.9 21.7a44.28072 44.28072 0 0 1 17.1 34.96z" fill="#ffceb6"/><path d="m224 80v80l-36 36-48-48 68-68z" fill="#ef5e3b"/><path d="m216 40-7.495-7.495a29.0379 29.0379 0 0 0 -20.5329-8.505 32.31548 32.31548 0 0 0 -28.90385 17.86356 32.31546 32.31546 0 0 1 -22.56626 17.236l-24.50199 4.90044 26.54685 9.95507a53.38535 53.38535 0 0 0 61.45315-17.95507l16-.00007z" fill="#b1712c"/><path d="m208 71.999 16-15.999h24v24a24 24 0 0 1 -24 24 24 24 0 0 1 -24-24v-8z" fill="#ffceb6"/><path d="m248 56a24 24 0 0 0 -24-24 24 24 0 0 0 -24 24v16l8-.001 16-15.999z" fill="#c78640"/><path d="m242.89408 184a45.61451 45.61451 0 0 0 10.08542-1.12892l63.33725-14.35937a16.56885 16.56885 0 0 0 12.90544-16.15878 18.767 18.767 0 0 0 -18.767-18.767 18.76711 18.76711 0 0 0 -9.71089 2.70776l-12.7443 7.70631h-40l-41.37259-41.37259a22.6274 22.6274 0 0 0 -16-6.62741 22.62739 22.62739 0 0 0 -22.62741 22.62739 22.6274 22.6274 0 0 0 6.62741 16l36.01246 36.01246a45.61433 45.61433 0 0 0 32.25421 13.36015z" fill="#ffceb6"/><path d="m144 360 40 8 8 40-16 16-40-56z" fill="#e0edff"/><path d="m56 464h368v24h-368z" fill="#8098ab"/><path d="m203 229-38.37 38.37-36.54-21.32a48.56035 48.56035 0 0 1 -9.87-76.27l21.78-21.78 48 48-12 12z" fill="#ffb401"/></svg>